<svg id="Capa_2" data-name="Capa 2" xmlns="http://www.w3.org/2000/svg" viewBox="0 0 512 512"><defs><style>.cls-1{fill:#2c3e50;}.cls-2{fill:#d35400;}.cls-3{fill:#e67e22;}.cls-4{fill:#3498db;}.cls-5{fill:#2980b9;}</style></defs><title>Mesa de trabajo 1</title><path class="cls-1" d="M465.78,408.79,278.22,463.91c-2.32.68-4.22-.48-4.22-2.57V408c0-2.1,1.9-4.37,4.22-5.05l187.57-55.13c2.32-.68,4.22.48,4.22,2.57v53.38C470,405.84,468.1,408.11,465.78,408.79Z"/><path class="cls-1" d="M233.78,402.91,46.22,347.79c-2.32-.68-4.22.48-4.22,2.57v53.38c0,2.1,1.9,4.37,4.22,5.05l187.57,55.13c2.32.68,4.22-.48,4.22-2.57V408C238,405.87,236.1,403.6,233.78,402.91Z"/><g id="letters"><g id="d"><path class="cls-2" d="M234.78,184.45,47.22,129.32c-2.32-.68-4.22.48-4.22,2.57v53.38c0,2.1,1.9,4.37,4.22,5.05l187.57,55.13c2.32.68,4.22-.48,4.22-2.57V189.5C239,187.4,237.1,185.13,234.78,184.45Z"/><path class="cls-3" d="M234.78,247,47.22,302.14c-2.32.68-4.22-.48-4.22-2.57V246.19c0-2.1,1.9-4.37,4.22-5.05L234.78,186c2.32-.68,4.22.48,4.22,2.57V242C239,244.06,237.1,246.33,234.78,247Z"/><path class="cls-2" d="M234.78,297.27,47.22,242.14c-2.32-.68-4.22.48-4.22,2.57v53.38c0,2.1,1.9,4.37,4.22,5.05l187.57,55.13c2.32.68,4.22-.48,4.22-2.57V302.32C239,300.22,237.1,297.95,234.78,297.27Z"/></g><g id="s"><path class="cls-4" d="M465.78,189.09,278.22,244.21c-2.32.68-4.22-.48-4.22-2.57V188.26c0-2.1,1.9-4.37,4.22-5.05l187.57-55.13c2.32-.68,4.22.48,4.22,2.57V184C470,186.13,468.1,188.4,465.78,189.09Z"/><path class="cls-5" d="M465.78,240.34,278.22,185.22c-2.32-.68-4.22.48-4.22,2.57v53.38c0,2.1,1.9,4.37,4.22,5.05l187.57,55.13c2.32.68,4.22-.48,4.22-2.57V245.39C470,243.3,468.1,241,465.78,240.34Z"/><path class="cls-4" d="M465.78,303.35,278.22,358.47c-2.32.68-4.22-.48-4.22-2.57V302.52c0-2.1,1.9-4.37,4.22-5.05l187.57-55.13c2.32-.68,4.22.48,4.22,2.57V298.3C470,300.39,468.1,302.67,465.78,303.35Z"/></g></g></svg>